# xmcd CD database file
#
# Track frame offsets:
#	150
#	15525
#	33654
#	48088
#	66409
#	78931
#	97801
#	110597
#	128628
#	146475
#	163000
#	175958
#	188708
#	201476
#	214185
#	226161
#	243100
#	262097
#	276402
#	304452
#	315915
#	331095
#	342413
#
# Disc length: 4788 seconds
#
# Revision: 1
# Processed by: cddbd v1.5.2PL0 Copyright (c) Steve Scherf et al.
# Submitted via: CDex 1.51
#
DISCID=4912b217
DTITLE=Los Nietos - Seleccion personal
DYEAR=2006
DGENRE=Country
TTITLE0=Los Nietos De Sinaloa - Los Nietos De Sinaloa - Aun te extraña
TTITLE1=Los Nietos - Los Nietos - Soy tu esclavo
TTITLE2=Los nietos de sinaloa - Los nietos de sinaloa - Sueños
TTITLE3=artist - artist - REGALAME LA FELICIDAD---LOS NIETOS
TTITLE4=los nietos - en vivo - los nietos - en vivo - el mar
TTITLE5=Los Nietos De Sinaloa - Los Nietos De Sinaloa - Claridad
TTITLE6=Los Nietos - Los Nietos - Ven Ven.
TTITLE7=Los Nietos - Los Nietos - Coqueta
TTITLE8=Los nietos de sinaloa - Los nietos de sinaloa - Te amo
TTITLE9=Los Nietos De Sinaloa - Los Nietos De Sinaloa - Para Recordarte
TTITLE10=Los Nietos de Sinaloa - A la Puerta del Colegio
TTITLE11=Los Nietos De Sinaloa - Los Nietos De Sinaloa - El Discreto
TTITLE12=LoS niEtoS - LoS niEtoS - La ChiKa DeL bIkiNi aZuL
TTITLE13=Los Nietos De Sinaloa - Los Nietos De Sinaloa - Para Reconquistarte
TTITLE14=Los nietos de sinaloa - Los nietos de sinaloa - Provocame
TTITLE15=los nietos - mirandote en las estrellas
TTITLE16=Los Nietos - Los Nietos - La Incondicional
TTITLE17=Los Nietos - Los Nietos - Buenos Amigos
TTITLE18=Los Nietos De Sinaloa - Los Nietos De Sinaloa - Popurri De Timbiriche
TTITLE19=Los Nietos De Sinaloa - Los Nietos De Sinaloa - Eres Mi Todo
TTITLE20=Los Nietos - Los Nietos - No Podrás
TTITLE21=Los Nietos De Sinaloa - Los Nietos De Sinaloa - Que Soledad
TTITLE22=LOS NIETOS - LOS NIETOS - Te Quiero Mas
EXTD=YEAR: 2006
EXTT0=
EXTT1=
EXTT2=
EXTT3=
EXTT4=
EXTT5=
EXTT6=
EXTT7=
EXTT8=
EXTT9=
EXTT10=
EXTT11=
EXTT12=
EXTT13=
EXTT14=
EXTT15=
EXTT16=
EXTT17=
EXTT18=
EXTT19=
EXTT20=
EXTT21=
EXTT22=
PLAYORDER=
